<svg version="1" xmlns="http://www.w3.org/2000/svg" width="196" height="196" viewBox="0 0 147.000000 147.000000"><path d="M54.5 22.4c-2.8 1.3-6.3 3.7-7.7 5.5-2.4 2.7-3 3-5.3 2.1-9.6-3.7-22.6 2.2-27.4 12.5-2.1 4.5-2.9 12.3-1.7 16.1.5 1.6-.3 2.8-3.5 5.4C-4 74.3-2 95.6 12.6 103.8c1.2.7 1.3 1.4.4 3.8-1.8 4.6-1.3 12.7 1.1 17.9 4.8 10.2 17.7 16.2 27.4 12.5 2.3-.9 2.9-.6 5.5 2.4 4.4 4.9 8.7 6.6 16.8 6.6 8.5 0 12.9-1.7 17.2-6.7 3.2-3.7 7-6.7 5.6-4.5-.5.9 1.6 1.8 7.2 2.8 1.7.3 2.2.1 1.6-.8-.6-1-.4-1 .8 0 1.3 1 2.5 1.1 5.7.2 2.3-.6 4.1-1.5 4.1-2.1 0-.6.4-.8.8-.5.4.2 1.4.1 2.2-.4 1.2-.7 1.2-1.1-.1-2.6-.8-1-.9-1.5-.2-1.1.6.4 1.3.4 1.6 0 .2-.5.2-.2.1.4-1 4.1 4.9-2.8 7-8.2 1.3-3.1 1.9-10.8.9-10.2-.5.3-.9-.3-.9-1.3s.4-1.6.8-1.4c.4.3.8 0 .8-.5 0-.6-.5-1.1-1.1-1.1-.6 0-.9-.6-.6-1.3.3-.8.2-2-.3-2.7-.5-.8.2-2.1 2.1-3.8 10.7-9 11.5-27.2 1.4-36-2.4-2.2-3-3.3-2.4-4.8 1.2-3 1-11.3-.3-15.8-.8-2.5-3.1-5.9-5.8-8.6-6.6-6.7-15.1-8.7-23.7-5.6l-4 1.4-2.8-3.5C78 23.8 69.9 20 64 20c-2.6 0-6.6 1-9.5 2.4zm57.8 92.3c-.4 1-.2 1.4.5.9.6-.3 1.4-.1 1.8.5.5.8.3.9-.6.4-1-.6-1.2-.3-.7 1.1.7 1.8.6 1.8-.6.2-1.1-1.4-1.6-1.5-2.7-.5-.7.7-.5 0 .5-1.6 1.9-3 2.8-3.5 1.8-1zm4.1 6.3c-.6.6-1 .3-1-1s.4-1.6 1-1c.7.7.7 1.3 0 2zm-3.1 1.7c-.5 1.2-.3 1.4.7.8.8-.5 1.1-.4.6.3-.7 1.1-4.4.8-5.5-.4-.3-.4.2-.5 1.1-.1.9.3 1.9 0 2.2-.9.3-.8.8-1.4 1-1.4.3 0 .2.7-.1 1.7zm-10.3 2.7c0 .2-.7.7-1.6 1-.8.3-1.2.2-.9-.4.6-1 2.5-1.4 2.5-.6zm6.2 1.8c-.2 1-.6 1.8-.7 1.8-.1 0-.5-.8-.7-1.8-.3-1.1 0-1.9.7-1.9s1 .8.7 1.9zm-10.5 4.3c0 .8-.5 1.1-1 .8-.7-.4-.8.1-.3 1.3.6 1.5.5 1.6-.5.7-1-1-.9-1.5.1-2.8 1.5-1.9 1.7-1.9 1.7 0zm-3.7.5c0 .5-.5 1-1.1 1-.5 0-.7-.5-.4-1 .3-.6.8-1 1.1-1 .2 0 .4.4.4 1zm10.3 2.7c-.3.7-.6 1.3-.8 1.3-.2 0-.5-.6-.8-1.3-.3-.8.1-1.4.8-1.4.7 0 1.1.6.8 1.4zM101 136c0 .5-.4 1-1 1-.5 0-1-.5-1-1 0-.6.5-1 1-1 .6 0 1 .4 1 1z"/></svg>